{"accessors":[{"bufferView":2,"componentType":5126,"count":13109,"max":[4.91375207901001,4.942400932312012,8.514835357666016],"min":[-4.915293216705322,-4.886649131774902,-8.100461959838867],"type":"VEC3","byteOffset":0},{"bufferView":2,"byteOffset":157308,"componentType":5126,"count":13109,"max":[1,1,1],"min":[-1,-1,-0.9996188879013062],"type":"VEC3"},{"bufferView":3,"componentType":5126,"count":13109,"max":[1,1,1,1],"min":[-1,-1,-1,-1],"type":"VEC4","byteOffset":0},{"bufferView":1,"componentType":5126,"count":13109,"max":[0.9693660140037537,0.9669989943504333],"min":[0.07281500101089478,0.17542600631713867],"type":"VEC2","byteOffset":0},{"bufferView":0,"componentType":5125,"count":76992,"max":[13108],"min":[0],"type":"SCALAR","byteOffset":0},{"bufferView":2,"byteOffset":314616,"componentType":5126,"count":429,"max":[0.01307199988514185,-2.1028099060058594,8.157958030700684],"min":[-0.014612999744713306,-2.130496025085449,8.157922744750977],"type":"VEC3"},{"bufferView":2,"byteOffset":319764,"componentType":5126,"count":429,"max":[0.9999686479568481,0.9999684691429138,1],"min":[-0.9999686479568481,-0.9999999403953552,-1],"type":"VEC3"},{"bufferView":3,"byteOffset":209744,"componentType":5126,"count":429,"max":[0.3711197078227997,1,1,1],"min":[-0.9716485738754272,0,-1,-1],"type":"VEC4"},{"bufferView":1,"byteOffset":104872,"componentType":5126,"count":429,"max":[0.000043000000005122274,0.000043000000005122274],"min":[0,0],"type":"VEC2"},{"bufferView":0,"byteOffset":307968,"componentType":5125,"count":1242,"max":[428],"min":[0],"type":"SCALAR"},{"bufferView":2,"byteOffset":324912,"componentType":5126,"count":439,"max":[0.21392899751663208,0.3214240074157715,8.26123046875],"min":[-0.36399298906326294,-0.2009200006723404,8.171867370605469],"type":"VEC3"},{"bufferView":2,"byteOffset":330180,"componentType":5126,"count":439,"max":[0.9993135333061218,0.9995242357254028,0.9999686479568481],"min":[-0.9993135333061218,-0.9995242357254028,-0.9999686479568481],"type":"VEC3"},{"bufferView":3,"byteOffset":216608,"componentType":5126,"count":439,"max":[0.9993152022361755,0.9996009469032288,0.12568782269954681,1],"min":[-0.9994044303894043,-0.9995242357254028,-0.04856271296739578,1],"type":"VEC4"},{"bufferView":1,"byteOffset":108304,"componentType":5126,"count":439,"max":[0.7191640138626099,0.91566002368927],"min":[0.6026179790496826,0.7991129755973816],"type":"VEC2"},{"bufferView":0,"byteOffset":312936,"componentType":5125,"count":2280,"max":[438],"min":[0],"type":"SCALAR"},{"bufferView":2,"byteOffset":335448,"componentType":5126,"count":2702,"max":[1.3247079849243164,2.7112650871276855,8.525277137756348],"min":[-1.3860859870910645,-1.2026469707489014,7.959714889526367],"type":"VEC3"},{"bufferView":2,"byteOffset":367872,"componentType":5126,"count":2702,"max":[0.999509871006012,0.9998791217803955,0.9999988675117493],"min":[-0.999346137046814,-0.9997525215148926,-0.9999726414680481],"type":"VEC3"},{"bufferView":3,"byteOffset":223632,"componentType":5126,"count":2702,"max":[0.9999991655349731,0.9961350560188293,0.9989895224571228,1],"min":[-0.9999977350234985,-0.9972459673881531,-0.9992114901542664,-1],"type":"VEC4"},{"bufferView":1,"byteOffset":111816,"componentType":5126,"count":2702,"max":[0.9232209920883179,0.9599519968032837],"min":[0.5843110084533691,0.5771989822387695],"type":"VEC2"},{"bufferView":0,"byteOffset":322056,"componentType":5125,"count":15360,"max":[2701],"min":[0],"type":"SCALAR"}],"asset":{"extras":{"author":"MillieMara (https://sketchfab.com/MillieMara)","license":"CC-BY-4.0 (http://creativecommons.org/licenses/by/4.0/)","source":"https://sketchfab.com/models/f82039689f504922995936c68484aa61","title":"Grape Fanta Can"},"generator":"Sketchfab-3.19.8","version":"2.0"},"bufferViews":[{"buffer":0,"byteLength":383496,"byteOffset":0,"name":"floatBufferViews","target":34963},{"buffer":0,"byteLength":133432,"byteOffset":383496,"byteStride":8,"name":"floatBufferViews","target":34962},{"buffer":0,"byteLength":400296,"byteOffset":516928,"byteStride":12,"name":"floatBufferViews","target":34962},{"buffer":0,"byteLength":266864,"byteOffset":917224,"byteStride":16,"name":"floatBufferViews","target":34962},{"buffer":0,"byteOffset":1184088,"byteLength":233419}],"buffers":[{"byteLength":1417508,"uri":"data:application/octet-stream;base64,"}],"images":[{"bufferView":4,"mimeType":"image/png"}],"materials":[{"doubleSided":true,"emissiveFactor":[0,0,0],"name":"blinn1SG","pbrMetallicRoughness":{"baseColorFactor":[0.5364151001,0.5364151001,0.5364151001,1],"baseColorTexture":{"index":0,"texCoord":0},"metallicFactor":0.9011949743,"roughnessFactor":0.2030817668},"alphaMode":"OPAQUE"}],"meshes":[{"primitives":[{"attributes":{"NORMAL":1,"POSITION":0,"TANGENT":2,"TEXCOORD_0":3},"indices":4,"material":0,"mode":4}]},{"primitives":[{"attributes":{"NORMAL":6,"POSITION":5,"TANGENT":7,"TEXCOORD_0":8},"indices":9,"material":0,"mode":4}]},{"primitives":[{"attributes":{"NORMAL":11,"POSITION":10,"TANGENT":12,"TEXCOORD_0":13},"indices":14,"material":0,"mode":4}]},{"primitives":[{"attributes":{"NORMAL":16,"POSITION":15,"TANGENT":17,"TEXCOORD_0":18},"indices":19,"material":0,"mode":4}]}],"nodes":[{"children":[1],"name":"RootNode (gltf orientation matrix)","rotation":[-0.7071067811865475,0,0,0.7071067811865476],"translation":[0,0,0],"scale":[1,1,1]},{"children":[2],"name":"RootNode (model correction matrix)"},{"children":[3,4,5,6],"name":"Canexport.obj.cleaner.materialmerger.gles"},{"mesh":0,"name":""},{"mesh":1,"name":""},{"mesh":2,"name":""},{"mesh":3,"name":""}],"samplers":[{"magFilter":9729,"minFilter":9987,"wrapS":10497,"wrapT":10497}],"scene":0,"scenes":[{"name":"OSG_Scene","nodes":[0]}],"textures":[{"sampler":0,"source":0}]}
